<svg width="256" height="256" viewBox="0 0 256 256" fill="none" xmlns="http://www.w3.org/2000/svg">
<path d="M0 0H256V256H0V0Z" fill="#24BA8C"/>
<path d="M57.6959 227C57.4825 227 57.3119 226.925 57.1839 226.776C57.0559 226.627 57.0132 226.435 57.0559 226.2L61.4719 205.4C61.5145 205.165 61.6319 204.973 61.8239 204.824C62.0159 204.675 62.2185 204.6 62.4319 204.6H71.8079C73.5145 204.6 74.9332 204.856 76.0639 205.368C77.2159 205.88 78.0265 206.616 78.4959 207.576C78.9865 208.515 79.0932 209.635 78.8159 210.936C78.6452 211.747 78.3465 212.451 77.9199 213.048C77.5145 213.624 77.0665 214.093 76.5759 214.456C76.1065 214.819 75.6585 215.085 75.2319 215.256C75.9785 215.683 76.5759 216.323 77.0239 217.176C77.4719 218.029 77.5679 219.043 77.3119 220.216C77.0132 221.624 76.4905 222.84 75.7439 223.864C75.0185 224.867 74.0265 225.645 72.7679 226.2C71.5305 226.733 69.9945 227 68.1599 227H57.6959ZM63.5199 222.84H67.9679C68.8639 222.84 69.6105 222.573 70.2079 222.04C70.8052 221.507 71.1785 220.899 71.3279 220.216C71.4985 219.469 71.4132 218.84 71.0719 218.328C70.7519 217.816 70.1012 217.56 69.1199 217.56H64.6399L63.5199 222.84ZM65.5039 213.496H69.5999C70.4745 213.496 71.1892 213.272 71.7439 212.824C72.2985 212.376 72.6505 211.8 72.7999 211.096C72.9492 210.413 72.8745 209.859 72.5759 209.432C72.2772 208.984 71.6905 208.76 70.8159 208.76H66.5279L65.5039 213.496ZM80.2271 227C80.0138 227 79.8431 226.925 79.7151 226.776C79.5871 226.627 79.5445 226.435 79.5871 226.2L84.0031 205.4C84.0458 205.165 84.1631 204.973 84.3551 204.824C84.5471 204.675 84.7498 204.6 84.9631 204.6H99.9071C100.142 204.6 100.312 204.675 100.419 204.824C100.547 204.973 100.59 205.165 100.547 205.4L99.9391 208.408C99.8965 208.643 99.7791 208.835 99.5871 208.984C99.3951 209.133 99.1818 209.208 98.9471 209.208H88.7391L87.8111 213.528H97.2831C97.5178 213.528 97.6991 213.613 97.8271 213.784C97.9551 213.933 97.9978 214.125 97.9551 214.36L97.3471 217.144C97.3045 217.357 97.1871 217.549 96.9951 217.72C96.8245 217.869 96.6218 217.944 96.3871 217.944H86.8831L85.9551 222.392H96.3871C96.6218 222.392 96.7925 222.467 96.8991 222.616C97.0271 222.765 97.0698 222.957 97.0271 223.192L96.3871 226.2C96.3445 226.435 96.2271 226.627 96.0351 226.776C95.8645 226.925 95.6618 227 95.4271 227H80.2271ZM100.633 227C100.42 227 100.249 226.925 100.121 226.776C99.9934 226.627 99.9507 226.435 99.9934 226.2L104.409 205.4C104.452 205.165 104.569 204.973 104.761 204.824C104.953 204.675 105.156 204.6 105.369 204.6H120.313C120.548 204.6 120.719 204.675 120.825 204.824C120.953 204.973 120.996 205.165 120.953 205.4L120.345 208.408C120.303 208.643 120.185 208.835 119.993 208.984C119.801 209.133 119.588 209.208 119.353 209.208H109.145L108.217 213.528H117.689C117.924 213.528 118.105 213.613 118.233 213.784C118.361 213.933 118.404 214.125 118.361 214.36L117.753 217.144C117.711 217.357 117.593 217.549 117.401 217.72C117.231 217.869 117.028 217.944 116.793 217.944H107.289L106.361 222.392H116.793C117.028 222.392 117.199 222.467 117.305 222.616C117.433 222.765 117.476 222.957 117.433 223.192L116.793 226.2C116.751 226.435 116.633 226.627 116.441 226.776C116.271 226.925 116.068 227 115.833 227H100.633ZM121.04 227C120.826 227 120.656 226.925 120.528 226.776C120.4 226.627 120.357 226.435 120.4 226.2L124.816 205.4C124.858 205.165 124.976 204.973 125.168 204.824C125.36 204.675 125.562 204.6 125.776 204.6H133.584C134.97 204.6 136.24 204.792 137.392 205.176C138.565 205.56 139.557 206.125 140.368 206.872C141.2 207.597 141.786 208.504 142.128 209.592C142.49 210.68 142.533 211.928 142.256 213.336C142.106 214.275 141.957 215.096 141.808 215.8C141.658 216.504 141.466 217.315 141.232 218.232C140.741 220.216 140.037 221.859 139.12 223.16C138.202 224.461 137.008 225.432 135.536 226.072C134.085 226.691 132.25 227 130.032 227H121.04ZM126.96 222.392H130.32C131.258 222.392 132.058 222.253 132.72 221.976C133.402 221.677 133.957 221.219 134.384 220.6C134.832 219.981 135.173 219.171 135.408 218.168C135.557 217.549 135.685 216.995 135.792 216.504C135.92 216.013 136.026 215.523 136.112 215.032C136.218 214.541 136.325 213.997 136.432 213.4C136.688 211.949 136.528 210.893 135.952 210.232C135.376 209.549 134.384 209.208 132.976 209.208H129.776L126.96 222.392ZM143.946 227C143.711 227 143.53 226.925 143.402 226.776C143.274 226.627 143.231 226.435 143.274 226.2L147.722 205.4C147.765 205.165 147.882 204.973 148.074 204.824C148.266 204.675 148.469 204.6 148.682 204.6H153.002C153.215 204.6 153.386 204.675 153.514 204.824C153.642 204.973 153.685 205.165 153.642 205.4L149.194 226.2C149.151 226.435 149.034 226.627 148.842 226.776C148.671 226.925 148.479 227 148.266 227H143.946ZM154.321 227C154.108 227 153.937 226.925 153.809 226.776C153.681 226.627 153.638 226.435 153.681 226.2L158.097 205.4C158.14 205.165 158.246 204.973 158.417 204.824C158.609 204.675 158.822 204.6 159.057 204.6H162.449C162.79 204.6 163.025 204.675 163.153 204.824C163.281 204.973 163.366 205.101 163.409 205.208L168.625 217.592L171.217 205.4C171.26 205.165 171.377 204.973 171.569 204.824C171.761 204.675 171.964 204.6 172.177 204.6H176.017C176.252 204.6 176.422 204.675 176.529 204.824C176.657 204.973 176.7 205.165 176.657 205.4L172.241 226.2C172.198 226.413 172.081 226.605 171.889 226.776C171.718 226.925 171.516 227 171.281 227H167.889C167.548 227 167.313 226.925 167.185 226.776C167.057 226.605 166.972 226.477 166.929 226.392L161.649 214.456L159.121 226.2C159.078 226.435 158.961 226.627 158.769 226.776C158.598 226.925 158.396 227 158.161 227H154.321ZM186.153 227.32C184.126 227.32 182.452 226.989 181.129 226.328C179.828 225.645 178.91 224.664 178.377 223.384C177.844 222.083 177.737 220.504 178.057 218.648C178.228 217.731 178.42 216.76 178.633 215.736C178.868 214.691 179.092 213.699 179.305 212.76C179.753 210.947 180.521 209.411 181.609 208.152C182.697 206.893 184.041 205.933 185.641 205.272C187.262 204.611 189.065 204.28 191.049 204.28C192.649 204.28 194.025 204.483 195.177 204.888C196.329 205.272 197.257 205.795 197.961 206.456C198.665 207.117 199.156 207.843 199.433 208.632C199.71 209.421 199.774 210.2 199.625 210.968C199.604 211.16 199.508 211.32 199.337 211.448C199.188 211.576 199.006 211.64 198.793 211.64H194.121C193.908 211.64 193.748 211.608 193.641 211.544C193.534 211.459 193.449 211.341 193.385 211.192C193.321 210.872 193.182 210.541 192.969 210.2C192.756 209.837 192.425 209.528 191.977 209.272C191.529 209.016 190.889 208.888 190.057 208.888C188.862 208.888 187.838 209.208 186.985 209.848C186.153 210.488 185.566 211.512 185.225 212.92C185.012 213.837 184.798 214.765 184.585 215.704C184.393 216.621 184.212 217.549 184.041 218.488C183.785 219.981 183.945 221.059 184.521 221.72C185.118 222.381 186.025 222.712 187.241 222.712C188.03 222.712 188.766 222.573 189.449 222.296C190.153 222.019 190.75 221.592 191.241 221.016C191.732 220.419 192.062 219.661 192.233 218.744L192.361 218.136H189.353C189.118 218.136 188.937 218.061 188.809 217.912C188.702 217.741 188.67 217.539 188.713 217.304L189.225 214.936C189.268 214.701 189.385 214.509 189.577 214.36C189.769 214.189 189.972 214.104 190.185 214.104H198.281C198.516 214.104 198.686 214.189 198.793 214.36C198.9 214.509 198.932 214.701 198.889 214.936L198.121 218.584C197.758 220.419 197.012 221.987 195.881 223.288C194.772 224.589 193.374 225.592 191.689 226.296C190.025 226.979 188.18 227.32 186.153 227.32Z" fill="#8F7345"/>
<path d="M58.6959 228C58.4825 228 58.3119 227.925 58.1839 227.776C58.0559 227.627 58.0132 227.435 58.0559 227.2L62.4719 206.4C62.5145 206.165 62.6319 205.973 62.8239 205.824C63.0159 205.675 63.2185 205.6 63.4319 205.6H72.8079C74.5145 205.6 75.9332 205.856 77.0639 206.368C78.2159 206.88 79.0265 207.616 79.4959 208.576C79.9865 209.515 80.0932 210.635 79.8159 211.936C79.6452 212.747 79.3465 213.451 78.9199 214.048C78.5145 214.624 78.0665 215.093 77.5759 215.456C77.1065 215.819 76.6585 216.085 76.2319 216.256C76.9785 216.683 77.5759 217.323 78.0239 218.176C78.4719 219.029 78.5679 220.043 78.3119 221.216C78.0132 222.624 77.4905 223.84 76.7439 224.864C76.0185 225.867 75.0265 226.645 73.7679 227.2C72.5305 227.733 70.9945 228 69.1599 228H58.6959ZM64.5199 223.84H68.9679C69.8639 223.84 70.6105 223.573 71.2079 223.04C71.8052 222.507 72.1785 221.899 72.3279 221.216C72.4985 220.469 72.4132 219.84 72.0719 219.328C71.7519 218.816 71.1012 218.56 70.1199 218.56H65.6399L64.5199 223.84ZM66.5039 214.496H70.5999C71.4745 214.496 72.1892 214.272 72.7439 213.824C73.2985 213.376 73.6505 212.8 73.7999 212.096C73.9492 211.413 73.8745 210.859 73.5759 210.432C73.2772 209.984 72.6905 209.76 71.8159 209.76H67.5279L66.5039 214.496ZM81.2271 228C81.0138 228 80.8431 227.925 80.7151 227.776C80.5871 227.627 80.5445 227.435 80.5871 227.2L85.0031 206.4C85.0458 206.165 85.1631 205.973 85.3551 205.824C85.5471 205.675 85.7498 205.6 85.9631 205.6H100.907C101.142 205.6 101.312 205.675 101.419 205.824C101.547 205.973 101.59 206.165 101.547 206.4L100.939 209.408C100.896 209.643 100.779 209.835 100.587 209.984C100.395 210.133 100.182 210.208 99.9471 210.208H89.7391L88.8111 214.528H98.2831C98.5178 214.528 98.6991 214.613 98.8271 214.784C98.9551 214.933 98.9978 215.125 98.9551 215.36L98.3471 218.144C98.3045 218.357 98.1871 218.549 97.9951 218.72C97.8245 218.869 97.6218 218.944 97.3871 218.944H87.8831L86.9551 223.392H97.3871C97.6218 223.392 97.7925 223.467 97.8991 223.616C98.0271 223.765 98.0698 223.957 98.0271 224.192L97.3871 227.2C97.3445 227.435 97.2271 227.627 97.0351 227.776C96.8645 227.925 96.6618 228 96.4271 228H81.2271ZM101.633 228C101.42 228 101.249 227.925 101.121 227.776C100.993 227.627 100.951 227.435 100.993 227.2L105.409 206.4C105.452 206.165 105.569 205.973 105.761 205.824C105.953 205.675 106.156 205.6 106.369 205.6H121.313C121.548 205.6 121.719 205.675 121.825 205.824C121.953 205.973 121.996 206.165 121.953 206.4L121.345 209.408C121.303 209.643 121.185 209.835 120.993 209.984C120.801 210.133 120.588 210.208 120.353 210.208H110.145L109.217 214.528H118.689C118.924 214.528 119.105 214.613 119.233 214.784C119.361 214.933 119.404 215.125 119.361 215.36L118.753 218.144C118.711 218.357 118.593 218.549 118.401 218.72C118.231 218.869 118.028 218.944 117.793 218.944H108.289L107.361 223.392H117.793C118.028 223.392 118.199 223.467 118.305 223.616C118.433 223.765 118.476 223.957 118.433 224.192L117.793 227.2C117.751 227.435 117.633 227.627 117.441 227.776C117.271 227.925 117.068 228 116.833 228H101.633ZM122.04 228C121.826 228 121.656 227.925 121.528 227.776C121.4 227.627 121.357 227.435 121.4 227.2L125.816 206.4C125.858 206.165 125.976 205.973 126.168 205.824C126.36 205.675 126.562 205.6 126.776 205.6H134.584C135.97 205.6 137.24 205.792 138.392 206.176C139.565 206.56 140.557 207.125 141.368 207.872C142.2 208.597 142.786 209.504 143.128 210.592C143.49 211.68 143.533 212.928 143.256 214.336C143.106 215.275 142.957 216.096 142.808 216.8C142.658 217.504 142.466 218.315 142.232 219.232C141.741 221.216 141.037 222.859 140.12 224.16C139.202 225.461 138.008 226.432 136.536 227.072C135.085 227.691 133.25 228 131.032 228H122.04ZM127.96 223.392H131.32C132.258 223.392 133.058 223.253 133.72 222.976C134.402 222.677 134.957 222.219 135.384 221.6C135.832 220.981 136.173 220.171 136.408 219.168C136.557 218.549 136.685 217.995 136.792 217.504C136.92 217.013 137.026 216.523 137.112 216.032C137.218 215.541 137.325 214.997 137.432 214.4C137.688 212.949 137.528 211.893 136.952 211.232C136.376 210.549 135.384 210.208 133.976 210.208H130.776L127.96 223.392ZM144.946 228C144.711 228 144.53 227.925 144.402 227.776C144.274 227.627 144.231 227.435 144.274 227.2L148.722 206.4C148.765 206.165 148.882 205.973 149.074 205.824C149.266 205.675 149.469 205.6 149.682 205.6H154.002C154.215 205.6 154.386 205.675 154.514 205.824C154.642 205.973 154.685 206.165 154.642 206.4L150.194 227.2C150.151 227.435 150.034 227.627 149.842 227.776C149.671 227.925 149.479 228 149.266 228H144.946ZM155.321 228C155.108 228 154.937 227.925 154.809 227.776C154.681 227.627 154.638 227.435 154.681 227.2L159.097 206.4C159.14 206.165 159.246 205.973 159.417 205.824C159.609 205.675 159.822 205.6 160.057 205.6H163.449C163.79 205.6 164.025 205.675 164.153 205.824C164.281 205.973 164.366 206.101 164.409 206.208L169.625 218.592L172.217 206.4C172.26 206.165 172.377 205.973 172.569 205.824C172.761 205.675 172.964 205.6 173.177 205.6H177.017C177.252 205.6 177.422 205.675 177.529 205.824C177.657 205.973 177.7 206.165 177.657 206.4L173.241 227.2C173.198 227.413 173.081 227.605 172.889 227.776C172.718 227.925 172.516 228 172.281 228H168.889C168.548 228 168.313 227.925 168.185 227.776C168.057 227.605 167.972 227.477 167.929 227.392L162.649 215.456L160.121 227.2C160.078 227.435 159.961 227.627 159.769 227.776C159.598 227.925 159.396 228 159.161 228H155.321ZM187.153 228.32C185.126 228.32 183.452 227.989 182.129 227.328C180.828 226.645 179.91 225.664 179.377 224.384C178.844 223.083 178.737 221.504 179.057 219.648C179.228 218.731 179.42 217.76 179.633 216.736C179.868 215.691 180.092 214.699 180.305 213.76C180.753 211.947 181.521 210.411 182.609 209.152C183.697 207.893 185.041 206.933 186.641 206.272C188.262 205.611 190.065 205.28 192.049 205.28C193.649 205.28 195.025 205.483 196.177 205.888C197.329 206.272 198.257 206.795 198.961 207.456C199.665 208.117 200.156 208.843 200.433 209.632C200.71 210.421 200.774 211.2 200.625 211.968C200.604 212.16 200.508 212.32 200.337 212.448C200.188 212.576 200.006 212.64 199.793 212.64H195.121C194.908 212.64 194.748 212.608 194.641 212.544C194.534 212.459 194.449 212.341 194.385 212.192C194.321 211.872 194.182 211.541 193.969 211.2C193.756 210.837 193.425 210.528 192.977 210.272C192.529 210.016 191.889 209.888 191.057 209.888C189.862 209.888 188.838 210.208 187.985 210.848C187.153 211.488 186.566 212.512 186.225 213.92C186.012 214.837 185.798 215.765 185.585 216.704C185.393 217.621 185.212 218.549 185.041 219.488C184.785 220.981 184.945 222.059 185.521 222.72C186.118 223.381 187.025 223.712 188.241 223.712C189.03 223.712 189.766 223.573 190.449 223.296C191.153 223.019 191.75 222.592 192.241 222.016C192.732 221.419 193.062 220.661 193.233 219.744L193.361 219.136H190.353C190.118 219.136 189.937 219.061 189.809 218.912C189.702 218.741 189.67 218.539 189.713 218.304L190.225 215.936C190.268 215.701 190.385 215.509 190.577 215.36C190.769 215.189 190.972 215.104 191.185 215.104H199.281C199.516 215.104 199.686 215.189 199.793 215.36C199.9 215.509 199.932 215.701 199.889 215.936L199.121 219.584C198.758 221.419 198.012 222.987 196.881 224.288C195.772 225.589 194.374 226.592 192.689 227.296C191.025 227.979 189.18 228.32 187.153 228.32Z" fill="#EBDD9F"/>
<path d="M178.929 124.006C173.895 126.476 168.681 128.235 163.318 129.555C160.633 130.216 157.926 130.787 155.055 131.438C155.394 131.877 155.678 132.268 155.986 132.64C157.092 133.978 158.231 134.865 160.242 134.934C167.011 135.165 173.499 136.727 179.359 140.285C184.061 143.138 187.919 146.829 190.078 152.011C191.683 155.865 191.032 159.848 188.293 162.253C185.042 165.109 181.27 165.92 177.166 164.363C173.579 163.002 170.897 160.395 168.408 157.586C167.36 156.403 166.391 155.151 165.215 153.722C165.276 154.739 165.349 155.503 165.364 156.268C165.511 163.898 163.126 170.674 158.416 176.643C155.278 180.62 151.352 183.6 146.764 185.735C146.403 185.902 146.02 186.276 145.888 186.642C144.731 189.845 143.625 193.067 142.514 196.287C142.276 196.978 141.986 197.619 141.183 197.762C140.356 197.91 139.821 197.467 139.355 196.821C137.675 194.496 135.918 192.226 134.289 189.866C133.588 188.851 132.822 188.459 131.562 188.386C124.238 187.965 117.735 185.353 112.103 180.654C106.061 175.613 102.352 169.221 101.188 161.402C101.094 160.773 101.053 160.137 100.96 159.235C100.667 159.671 100.478 159.921 100.32 160.19C98.7147 162.92 96.9746 165.547 94.5505 167.64C90.9914 170.714 86.9915 171.337 82.7039 169.505C79.2169 168.016 77.2924 164.434 77.662 160.654C78.1248 155.921 80.3282 151.98 83.2978 148.429C87.8304 143.009 93.7235 139.619 100.346 137.437C102.547 136.712 104.847 136.292 107.085 135.675C107.571 135.541 108.053 135.23 108.424 134.882C109.131 134.218 109.758 133.469 110.542 132.621C108.651 132.35 106.958 132.122 105.271 131.861C95.6248 130.369 86.2125 128.074 77.4423 123.63C73.9254 121.848 70.6417 119.714 67.9737 116.764C64.9934 113.469 63.3679 109.744 64.1257 105.15C64.9603 100.091 65.5011 94.9829 66.3738 89.9313C67.5248 83.2692 69.2784 76.744 71.3728 70.3152C73.6357 63.3688 76.2242 56.5468 79.8832 50.2026C81.3571 47.6469 83.1099 45.2377 84.8837 42.8727C87.36 39.571 90.9634 37.9087 94.7253 36.5737C100.251 34.6126 105.982 33.5774 111.784 32.849C118.443 32.0132 125.127 31.7601 131.825 31.908C141.349 32.1184 150.792 33.0362 159.955 35.8096C162.35 36.5347 164.676 37.5434 166.952 38.5985C170.438 40.2149 172.724 43.1619 174.804 46.2434C178.624 51.9031 181.316 58.1273 183.695 64.4936C186.623 72.3307 188.92 80.36 190.466 88.5756C191.472 93.9244 192.008 99.3601 192.917 104.729C193.978 110.993 191.12 115.499 186.534 119.133C184.204 120.98 181.52 122.379 178.929 124.006ZM177.176 142.999C176.994 142.886 176.812 142.774 176.543 142.571C171.338 139.743 165.728 138.542 159.602 138.204C159.935 138.749 160.109 139.038 160.286 139.325C162.228 142.461 164.188 145.586 166.107 148.735C168.24 152.235 170.676 155.495 173.773 158.197C174.825 159.114 176.1 159.775 177.332 160.685C177.413 160.736 177.494 160.786 177.641 160.903C177.731 160.927 177.821 160.951 177.992 161.09C178.347 161.225 178.692 161.401 179.058 161.487C181.845 162.136 184.354 161.558 186.299 159.441C188.144 157.432 187.798 155.083 186.761 152.832C184.878 148.743 181.745 145.77 178.005 143.384C177.772 143.236 177.472 143.193 177.204 143.125C177.204 143.125 177.227 143.124 177.176 142.999ZM94.1533 163.2C96.6164 160.341 98.3722 157.054 99.7321 153.573C101.144 149.96 102.365 146.272 103.682 142.622C104.021 141.684 104.408 140.763 104.77 139.84C104.585 139.76 104.527 139.711 104.473 139.715C104.315 139.727 104.155 139.744 104.004 139.788C99.793 141.013 95.7657 142.657 92.0978 145.094C89.6744 146.705 87.4439 148.539 85.5686 150.959C83.249 153.932 81.3996 157.116 81.0179 160.974C80.7778 163.4 82.0103 165.605 84.2318 166.512C88.0074 168.053 91.2926 166.824 94.1533 163.2ZM141.817 133.043C138.254 133.212 134.69 133.51 131.127 133.517C126.541 133.526 121.954 133.286 117.367 133.195C116.77 133.183 116.04 133.246 115.588 133.574C112.795 135.594 110.546 138.138 108.671 141.03C108.275 141.64 108.325 142.072 108.699 142.651C110.482 145.411 113.024 147.243 115.996 148.446C123.924 151.656 131.964 151.682 140.013 148.941C144.737 147.332 148.795 144.75 151.571 140.286C152.138 139.016 152.732 137.757 153.252 136.469C153.375 136.162 153.395 135.615 153.209 135.417C152.194 134.336 151.228 133.112 149.984 132.384C149.293 131.98 148.094 132.446 147.124 132.524C147.063 132.529 147.005 132.567 146.804 132.569C146.661 132.573 146.518 132.578 146.3 132.534C146.164 132.575 146.028 132.617 145.758 132.666C145.581 132.696 145.405 132.725 145.137 132.712C144.976 132.741 144.816 132.769 144.484 132.804C143.979 132.843 143.473 132.881 142.825 132.876C142.544 132.928 142.263 132.979 141.817 133.043ZM154.434 150.579C154.057 151.01 153.697 151.458 153.299 151.869C147.676 157.66 140.596 160.324 132.766 161.152C127.908 161.666 123.092 161.039 118.426 159.559C113.343 157.947 108.899 155.325 105.552 151.06C105.452 150.931 105.289 150.852 105.027 150.652C104.302 156.478 104.554 162.043 106.828 167.376C107.32 168.528 107.83 169.881 108.752 170.606C114.926 175.456 122.016 177.926 129.861 178.166C134.64 178.312 139.249 177.399 143.652 175.563C148.082 173.717 152.029 171.137 155.339 167.443C157.341 165.337 159.197 163.111 160.527 160.513C160.993 159.602 161.472 158.564 161.487 157.578C161.559 152.907 160.507 148.426 158.827 144.086C158.761 143.916 158.571 143.793 158.598 143.823C157.235 146.065 155.887 148.283 154.434 150.579ZM175.505 55.4205C174.033 52.0414 172.105 48.9395 169.833 46.0424C168.271 44.0503 166.405 42.4346 164.06 41.4509C162.358 40.7366 160.643 40.0177 158.877 39.4922C150.822 37.0956 142.531 36.1401 134.175 35.8191C126.752 35.534 119.33 35.7399 111.946 36.7185C106.472 37.4442 101.051 38.4006 95.8422 40.3071C93.6838 41.0971 91.494 41.8914 89.7606 43.4511C86.0176 46.8189 83.5736 51.0999 81.3788 55.696C80.9725 56.5233 80.5424 57.3398 80.1636 58.1795C76.2213 66.9182 73.4025 76.0223 71.2491 85.3521C69.6125 92.4425 68.5317 99.6176 67.8227 106.849C67.7181 107.916 67.9619 109.082 68.3051 110.116C69.113 112.549 70.8208 114.369 72.7425 115.989C76.5727 119.218 81.0312 121.31 85.6807 123.027C93.6128 125.957 101.834 127.625 110.21 128.654C118.966 129.73 127.746 129.951 136.543 129.538C142.305 129.267 148.034 128.641 153.725 127.653C160.998 126.391 168.125 124.612 174.886 121.609C177.139 120.608 179.231 119.249 181.529 118.038C183.249 116.582 185.1 115.254 186.655 113.64C188.55 111.673 189.551 109.24 189.247 106.41C188.5 99.4405 187.504 92.5086 185.93 85.6731C183.674 75.8793 180.718 66.3134 176.464 57.1823C176.2 56.6149 175.83 56.0965 175.505 55.4205Z" fill="#956336"/>
<path d="M181.397 118.053C179.231 119.249 177.139 120.608 174.886 121.609C168.125 124.612 160.998 126.391 153.724 127.653C148.034 128.641 142.305 129.267 136.543 129.538C127.746 129.951 118.966 129.73 110.21 128.654C101.834 127.625 93.6127 125.957 85.6807 123.027C81.0312 121.31 76.5726 119.218 72.7424 115.989C70.8207 114.369 69.113 112.549 68.3051 110.116C67.9619 109.082 67.7181 107.916 67.8227 106.849C68.5317 99.6176 69.6124 92.4426 71.249 85.3521C73.4025 76.0223 76.2213 66.9182 80.1636 58.1795C80.5424 57.3398 80.9725 56.5233 81.4804 55.6948C84.4239 58.1882 87.7168 59.9071 91.2211 61.245C100.214 64.6787 109.611 66.1507 119.153 66.7368C123.755 67.0194 128.381 67.0155 132.995 66.9601C139.216 66.8853 145.4 66.2346 151.521 65.1183C157.205 64.0817 162.777 62.6262 168.094 60.2966C168.483 60.1263 169.118 60.1928 169.504 60.3999C170.97 61.186 171.326 62.6534 170.539 64.5591C169.92 66.0584 169.1 67.4836 168.583 69.014C167.73 71.5425 169.316 74.2654 171.851 75.0699C173.525 75.601 174.981 75.1434 176.452 74.4631C177.505 79.2303 178.774 83.8902 179.501 88.6332C180.373 94.3218 180.941 100.07 181.338 105.814C181.618 109.876 181.395 113.972 181.397 118.053ZM160.452 105.07C165.357 103.245 168.012 98.1887 166.576 93.406C165.052 88.3335 160.162 85.5091 154.994 86.7168C149.692 87.956 146.613 93.3702 148.121 98.8045C149.517 103.836 155.254 106.804 160.452 105.07ZM98.5528 105.504C99.7859 105.427 101.072 105.55 102.243 105.24C107.149 103.937 109.927 99.5195 109.233 94.3454C108.631 89.8633 104.468 86.4398 99.6293 86.4482C94.4483 86.4572 90.3301 90.4302 90.1747 95.8549C90.027 101.017 93.9057 104.903 98.5528 105.504ZM126.996 111.395C125.889 115.641 121.839 116.037 119.632 114.487C118.449 113.656 117.905 112.397 117.461 111.085C117.123 110.087 116.494 109.705 115.578 109.95C114.855 110.142 114.459 110.805 114.692 111.703C115.452 114.641 116.985 117.005 120.048 117.894C123.006 118.752 125.663 118.067 127.832 115.811C128.064 115.57 128.154 115.193 128.344 114.81C128.869 115.414 129.069 115.658 129.284 115.888C130.43 117.119 131.812 117.924 133.497 118.129C137.78 118.65 141.005 116.44 142.328 112.097C142.647 111.051 142.333 110.188 141.548 109.952C140.59 109.665 139.985 110.066 139.592 111.222C139.089 112.702 138.392 114.076 136.927 114.808C134.706 115.916 131.099 115.416 130.093 111.354C129.896 110.558 129.576 109.92 128.601 109.893C127.637 109.867 127.241 110.434 126.996 111.395Z" fill="#FFF5B2"/>
<path d="M176.428 74.3926C174.981 75.1434 173.525 75.601 171.851 75.0699C169.316 74.2654 167.73 71.5425 168.583 69.014C169.1 67.4836 169.92 66.0584 170.539 64.5591C171.326 62.6534 170.97 61.186 169.504 60.3999C169.118 60.1928 168.483 60.1262 168.094 60.2966C162.777 62.6262 157.205 64.0817 151.521 65.1183C145.4 66.2346 139.216 66.8853 132.995 66.9601C128.381 67.0155 123.755 67.0194 119.153 66.7368C109.611 66.1507 100.214 64.6787 91.2211 61.245C87.7168 59.907 84.4239 58.1882 81.5315 55.6502C83.5736 51.0999 86.0176 46.8189 89.7606 43.4511C91.494 41.8914 93.6837 41.0971 95.8421 40.3071C101.051 38.4006 106.472 37.4442 111.946 36.7185C119.33 35.7399 126.752 35.534 134.175 35.8191C142.531 36.1401 150.822 37.0956 158.877 39.4922C160.643 40.0177 162.358 40.7366 164.06 41.4509C166.405 42.4346 168.271 44.0503 169.833 46.0424C172.105 48.9395 174.033 52.0414 175.455 55.5385C174.559 56.2249 174.306 57.1268 174.148 58.0396C173.61 61.1357 173.577 64.0394 176.558 66.1754C177.33 66.7285 177.854 67.8387 178.152 68.7985C178.831 70.9875 178.101 72.8649 176.428 74.3926ZM107.651 58.1225C109.388 58.3334 111.122 58.5822 112.864 58.7485C119.075 59.3415 125.293 59.8334 131.541 59.4951C134.815 59.3179 138.09 59.1667 141.359 58.9346C147.219 58.5188 152.997 57.5904 158.671 56.043C162.124 55.1012 165.503 53.9746 168.579 52.0914C169.505 51.5244 169.751 50.8336 169.333 50.123C168.931 49.4418 168.329 49.3658 167.348 49.9637C164.404 51.758 161.187 52.9299 157.87 53.6835C153.593 54.6551 149.27 55.5351 144.918 56.0376C139.646 56.6465 134.328 56.9339 129.021 57.1384C125.913 57.2582 122.779 57.0557 119.672 56.8009C115.17 56.4317 110.651 56.0844 106.198 55.3633C100.251 54.4002 94.3634 53.0865 89.055 49.9965C88.2829 49.547 87.4502 49.7867 87.1467 50.4273C86.8283 51.0992 87.1048 51.8709 87.9171 52.2408C90.0865 53.2287 92.2046 54.434 94.4786 55.0652C98.7644 56.2548 103.145 57.102 107.651 58.1225ZM176.953 68.4551C176.136 68.2166 175.854 68.5568 176.065 69.3284C176.365 70.4263 176.188 71.4292 175.416 72.2478C175.06 72.6257 174.488 72.7923 174.09 73.1409C173.875 73.3283 173.82 73.6979 173.694 73.9853C174.023 74.0815 174.42 74.3475 174.671 74.2472C176.87 73.3667 178.368 70.8836 176.953 68.4551Z" fill="#C8A063"/>
<path d="M155.222 167.495C152.029 171.137 148.082 173.717 143.652 175.563C139.249 177.399 134.64 178.312 129.861 178.166C122.016 177.926 114.926 175.456 108.752 170.606C107.83 169.881 107.32 168.528 106.828 167.376C104.554 162.043 104.302 156.478 105.027 150.652C105.289 150.852 105.452 150.931 105.552 151.06C108.899 155.325 113.343 157.947 118.426 159.559C123.092 161.039 127.908 161.666 132.766 161.152C140.596 160.324 147.676 157.66 153.299 151.869C153.697 151.458 154.057 151.01 154.528 150.609C154.928 153.152 155.42 155.658 155.495 158.177C155.586 161.278 155.329 164.389 155.222 167.495Z" fill="#FEF5B1"/>
<path d="M142.967 132.919C143.473 132.881 143.979 132.843 144.614 132.831C144.905 132.823 145.067 132.789 145.228 132.755C145.405 132.725 145.581 132.696 145.887 132.681C146.136 132.658 146.256 132.621 146.375 132.583C146.518 132.578 146.661 132.573 146.905 132.639C147.184 132.971 147.358 133.238 147.543 133.497C149.082 135.652 150.618 137.809 151.465 140.359C148.795 144.75 144.737 147.332 140.013 148.941C131.964 151.682 123.924 151.656 115.996 148.446C113.024 147.243 110.482 145.411 108.699 142.651C108.325 142.072 108.275 141.64 108.671 141.03C110.546 138.138 112.795 135.594 115.588 133.574C116.04 133.246 116.77 133.183 117.367 133.195C121.954 133.286 126.541 133.526 131.127 133.517C134.69 133.51 138.254 133.212 141.951 133.071C142.378 133.039 142.673 132.979 142.967 132.919Z" fill="#FEF5B1"/>
<path d="M176.452 74.4631C178.101 72.8649 178.831 70.9875 178.152 68.7985C177.854 67.8386 177.33 66.7285 176.558 66.1754C173.577 64.0394 173.61 61.1357 174.148 58.0396C174.306 57.1268 174.559 56.2249 175.457 55.606C175.83 56.0965 176.2 56.6149 176.464 57.1823C180.718 66.3134 183.674 75.8793 185.93 85.6731C187.504 92.5086 188.5 99.4405 189.247 106.41C189.551 109.24 188.55 111.673 186.655 113.64C185.1 115.254 183.249 116.582 181.463 118.045C181.395 113.972 181.618 109.876 181.338 105.814C180.941 100.07 180.373 94.3218 179.501 88.6331C178.774 83.8901 177.505 79.2303 176.452 74.4631Z" fill="#DEC77F"/>
<path d="M85.6862 150.89C87.4439 148.539 89.6744 146.705 92.0977 145.094C95.7657 142.657 99.793 141.013 104.004 139.788C104.155 139.744 104.315 139.727 104.473 139.715C104.527 139.711 104.585 139.76 104.77 139.84C104.408 140.763 104.021 141.684 103.682 142.622C102.365 146.272 101.144 149.96 99.7321 153.573C98.3722 157.054 96.6164 160.341 94.0175 163.227C93.5171 163.361 93.1434 163.444 92.7893 163.578C90.7861 164.339 88.766 164.505 86.7355 163.721C85.148 163.108 83.9541 162.16 83.5606 160.344C83.2117 158.734 83.5704 157.225 83.9863 155.737C84.4462 154.092 85.1108 152.504 85.6862 150.89Z" fill="#B4D4DF"/>
<path d="M177.273 160.553C176.1 159.775 174.825 159.114 173.773 158.197C170.676 155.495 168.24 152.235 166.107 148.735C164.188 145.586 162.228 142.461 160.286 139.325C160.109 139.038 159.935 138.749 159.602 138.204C165.728 138.542 171.338 139.743 176.618 142.674C176.871 142.893 177.049 143.009 177.227 143.124C177.227 143.124 177.204 143.125 177.215 143.18C177.531 143.679 177.82 144.133 178.141 144.563C180.255 147.392 182.351 150.211 183.45 153.653C184.693 157.546 181.93 160.889 178.727 160.761C178.458 160.75 178.183 160.9 177.911 160.974C177.821 160.951 177.731 160.927 177.559 160.821C177.409 160.677 177.341 160.615 177.273 160.553Z" fill="#B4D4DF"/>
<path d="M155.28 167.469C155.328 164.389 155.586 161.278 155.494 158.177C155.42 155.658 154.928 153.152 154.58 150.571C155.887 148.283 157.235 146.065 158.598 143.823C158.571 143.793 158.761 143.916 158.827 144.086C160.507 148.426 161.559 152.907 161.487 157.578C161.472 158.564 160.993 159.602 160.527 160.513C159.197 163.111 157.341 165.337 155.28 167.469Z" fill="#DDC77E"/>
<path d="M177.952 161.032C178.183 160.9 178.458 160.75 178.727 160.761C181.93 160.889 184.693 157.546 183.45 153.653C182.351 150.211 180.255 147.392 178.141 144.563C177.82 144.133 177.531 143.679 177.215 143.169C177.472 143.193 177.772 143.236 178.005 143.384C181.745 145.77 184.878 148.743 186.761 152.832C187.798 155.083 188.144 157.432 186.299 159.441C184.354 161.558 181.845 162.136 179.058 161.487C178.692 161.401 178.347 161.225 177.952 161.032Z" fill="#D6E0DF"/>
<path d="M85.6274 150.925C85.1108 152.504 84.4463 154.092 83.9863 155.737C83.5704 157.225 83.2118 158.734 83.5606 160.344C83.9541 162.16 85.148 163.108 86.7356 163.721C88.766 164.505 90.7861 164.339 92.7893 163.578C93.1434 163.444 93.5171 163.361 93.9626 163.249C91.2926 166.824 88.0074 168.053 84.2318 166.512C82.0103 165.605 80.7778 163.4 81.0179 160.974C81.3996 157.117 83.249 153.932 85.6274 150.925Z" fill="#D6E0DF"/>
<path d="M151.518 140.323C150.618 137.809 149.082 135.652 147.543 133.497C147.358 133.238 147.184 132.971 146.975 132.649C147.005 132.567 147.063 132.529 147.124 132.524C148.094 132.446 149.293 131.98 149.984 132.384C151.228 133.112 152.194 134.336 153.209 135.417C153.395 135.615 153.375 136.162 153.252 136.469C152.732 137.757 152.138 139.016 151.518 140.323Z" fill="#DCC67E"/>
<path d="M142.896 132.898C142.673 132.979 142.378 133.039 142.033 133.065C142.263 132.979 142.544 132.928 142.896 132.898Z" fill="#DCC67E"/>
<path d="M145.183 132.734C145.067 132.789 144.905 132.823 144.699 132.828C144.815 132.769 144.976 132.741 145.183 132.734Z" fill="#DCC67E"/>
<path d="M177.202 143.062C177.049 143.009 176.871 142.893 176.661 142.719C176.812 142.774 176.994 142.886 177.202 143.062Z" fill="#D6E0DF"/>
<path d="M146.338 132.559C146.256 132.621 146.136 132.658 145.954 132.677C146.028 132.617 146.164 132.575 146.338 132.559Z" fill="#DCC67E"/>
<path d="M177.303 160.619C177.341 160.615 177.409 160.677 177.526 160.788C177.494 160.786 177.413 160.736 177.303 160.619Z" fill="#D6E0DF"/>
<path d="M160.378 105.089C155.255 106.804 149.517 103.836 148.121 98.8045C146.613 93.3702 149.692 87.956 154.994 86.7168C160.163 85.5091 165.053 88.3334 166.576 93.406C168.012 98.1886 165.357 103.245 160.378 105.089Z" fill="#966235"/>
<path d="M98.4699 105.488C93.9057 104.903 90.027 101.017 90.1748 95.8548C90.3301 90.4302 94.4483 86.4572 99.6293 86.4482C104.468 86.4398 108.631 89.8633 109.233 94.3454C109.927 99.5195 107.149 103.937 102.243 105.24C101.072 105.55 99.7859 105.427 98.4699 105.488Z" fill="#966235"/>
<path d="M127.02 111.325C127.241 110.434 127.637 109.867 128.601 109.893C129.576 109.92 129.896 110.558 130.093 111.354C131.099 115.416 134.706 115.916 136.927 114.808C138.392 114.076 139.089 112.701 139.592 111.222C139.985 110.066 140.59 109.665 141.549 109.952C142.333 110.188 142.647 111.051 142.328 112.097C141.005 116.44 137.78 118.65 133.497 118.129C131.812 117.924 130.43 117.119 129.284 115.888C129.069 115.657 128.869 115.414 128.344 114.81C128.154 115.193 128.064 115.57 127.832 115.811C125.663 118.067 123.006 118.752 120.048 117.894C116.985 117.005 115.452 114.641 114.692 111.703C114.459 110.805 114.855 110.142 115.578 109.95C116.494 109.705 117.123 110.087 117.461 111.085C117.905 112.397 118.449 113.656 119.632 114.487C121.839 116.037 125.889 115.641 127.02 111.325Z" fill="#986638"/>
<path d="M107.569 58.107C103.145 57.102 98.7645 56.2548 94.4786 55.0652C92.2047 54.434 90.0865 53.2288 87.9171 52.2408C87.1048 51.8709 86.8283 51.0993 87.1467 50.4273C87.4502 49.7867 88.2829 49.547 89.0551 49.9965C94.3634 53.0865 100.251 54.4002 106.198 55.3633C110.651 56.0845 115.17 56.4317 119.672 56.8009C122.779 57.0557 125.913 57.2582 129.021 57.1384C134.328 56.9339 139.646 56.6465 144.918 56.0376C149.27 55.5351 153.593 54.6551 157.87 53.6835C161.187 52.9299 164.404 51.758 167.348 49.9637C168.329 49.3658 168.931 49.4418 169.333 50.1231C169.751 50.8336 169.505 51.5244 168.579 52.0915C165.503 53.9746 162.124 55.1012 158.671 56.043C152.997 57.5904 147.219 58.5188 141.359 58.9346C138.09 59.1667 134.815 59.3179 131.542 59.4951C125.293 59.8334 119.075 59.3415 112.864 58.7485C111.122 58.5822 109.388 58.3334 107.569 58.107Z" fill="#B28348"/>
<path d="M177.008 68.5004C178.368 70.8836 176.87 73.3667 174.671 74.2471C174.42 74.3475 174.023 74.0815 173.693 73.9853C173.82 73.6979 173.875 73.3282 174.09 73.1409C174.488 72.7923 175.06 72.6257 175.416 72.2478C176.188 71.4292 176.365 70.4263 176.065 69.3284C175.854 68.5568 176.136 68.2166 177.008 68.5004Z" fill="#F6D294"/>
</svg>
