<svg width="144" height="24" viewBox="0 0 144 24" fill="none" xmlns="http://www.w3.org/2000/svg">
<path d="M1.69588 23C1.48254 23 1.31188 22.9253 1.18388 22.776C1.05588 22.6267 1.01321 22.4347 1.05588 22.2L5.47188 1.4C5.51454 1.16533 5.63188 0.973332 5.82388 0.823999C6.01588 0.674665 6.21854 0.599998 6.43188 0.599998H15.8079C17.5145 0.599998 18.9332 0.855998 20.0639 1.368C21.2159 1.88 22.0265 2.616 22.4959 3.576C22.9865 4.51467 23.0932 5.63467 22.8159 6.936C22.6452 7.74667 22.3465 8.45067 21.9199 9.048C21.5145 9.624 21.0665 10.0933 20.5759 10.456C20.1065 10.8187 19.6585 11.0853 19.2319 11.256C19.9785 11.6827 20.5759 12.3227 21.0239 13.176C21.4719 14.0293 21.5679 15.0427 21.3119 16.216C21.0132 17.624 20.4905 18.84 19.7439 19.864C19.0185 20.8667 18.0265 21.6453 16.7679 22.2C15.5305 22.7333 13.9945 23 12.1599 23H1.69588ZM7.51988 18.84H11.9679C12.8639 18.84 13.6105 18.5733 14.2079 18.04C14.8052 17.5067 15.1785 16.8987 15.3279 16.216C15.4985 15.4693 15.4132 14.84 15.0719 14.328C14.7519 13.816 14.1012 13.56 13.1199 13.56H8.63988L7.51988 18.84ZM9.50388 9.496H13.5999C14.4745 9.496 15.1892 9.272 15.7439 8.824C16.2985 8.376 16.6505 7.8 16.7999 7.096C16.9492 6.41333 16.8745 5.85867 16.5759 5.432C16.2772 4.984 15.6905 4.76 14.8159 4.76H10.5279L9.50388 9.496ZM24.2271 23C24.0138 23 23.8431 22.9253 23.7151 22.776C23.5871 22.6267 23.5445 22.4347 23.5871 22.2L28.0031 1.4C28.0458 1.16533 28.1631 0.973332 28.3551 0.823999C28.5471 0.674665 28.7498 0.599998 28.9631 0.599998H43.9071C44.1418 0.599998 44.3125 0.674665 44.4191 0.823999C44.5471 0.973332 44.5898 1.16533 44.5471 1.4L43.9391 4.408C43.8965 4.64267 43.7791 4.83467 43.5871 4.984C43.3951 5.13333 43.1818 5.208 42.9471 5.208H32.7391L31.8111 9.528H41.2831C41.5178 9.528 41.6991 9.61333 41.8271 9.784C41.9551 9.93333 41.9978 10.1253 41.9551 10.36L41.3471 13.144C41.3045 13.3573 41.1871 13.5493 40.9951 13.72C40.8245 13.8693 40.6218 13.944 40.3871 13.944H30.8831L29.9551 18.392H40.3871C40.6218 18.392 40.7925 18.4667 40.8991 18.616C41.0271 18.7653 41.0698 18.9573 41.0271 19.192L40.3871 22.2C40.3445 22.4347 40.2271 22.6267 40.0351 22.776C39.8645 22.9253 39.6618 23 39.4271 23H24.2271ZM44.6334 23C44.42 23 44.2494 22.9253 44.1214 22.776C43.9934 22.6267 43.9507 22.4347 43.9934 22.2L48.4094 1.4C48.452 1.16533 48.5694 0.973332 48.7614 0.823999C48.9534 0.674665 49.156 0.599998 49.3694 0.599998H64.3134C64.548 0.599998 64.7187 0.674665 64.8254 0.823999C64.9534 0.973332 64.996 1.16533 64.9534 1.4L64.3454 4.408C64.3027 4.64267 64.1854 4.83467 63.9934 4.984C63.8014 5.13333 63.588 5.208 63.3534 5.208H53.1454L52.2174 9.528H61.6894C61.924 9.528 62.1054 9.61333 62.2334 9.784C62.3614 9.93333 62.404 10.1253 62.3614 10.36L61.7534 13.144C61.7107 13.3573 61.5934 13.5493 61.4014 13.72C61.2307 13.8693 61.028 13.944 60.7934 13.944H51.2894L50.3614 18.392H60.7934C61.028 18.392 61.1987 18.4667 61.3054 18.616C61.4334 18.7653 61.476 18.9573 61.4334 19.192L60.7934 22.2C60.7507 22.4347 60.6334 22.6267 60.4414 22.776C60.2707 22.9253 60.068 23 59.8334 23H44.6334ZM65.0396 23C64.8263 23 64.6556 22.9253 64.5276 22.776C64.3996 22.6267 64.357 22.4347 64.3996 22.2L68.8156 1.4C68.8583 1.16533 68.9756 0.973332 69.1676 0.823999C69.3596 0.674665 69.5623 0.599998 69.7756 0.599998H77.5836C78.9703 0.599998 80.2396 0.791999 81.3916 1.176C82.565 1.56 83.557 2.12533 84.3676 2.872C85.1996 3.59733 85.7863 4.504 86.1276 5.592C86.4903 6.68 86.533 7.928 86.2556 9.336C86.1063 10.2747 85.957 11.096 85.8076 11.8C85.6583 12.504 85.4663 13.3147 85.2316 14.232C84.741 16.216 84.037 17.8587 83.1196 19.16C82.2023 20.4613 81.0076 21.432 79.5356 22.072C78.085 22.6907 76.2503 23 74.0316 23H65.0396ZM70.9596 18.392H74.3196C75.2583 18.392 76.0583 18.2533 76.7196 17.976C77.4023 17.6773 77.957 17.2187 78.3836 16.6C78.8316 15.9813 79.173 15.1707 79.4076 14.168C79.557 13.5493 79.685 12.9947 79.7916 12.504C79.9196 12.0133 80.0263 11.5227 80.1116 11.032C80.2183 10.5413 80.325 9.99733 80.4316 9.4C80.6876 7.94933 80.5276 6.89333 79.9516 6.232C79.3756 5.54933 78.3836 5.208 76.9756 5.208H73.7756L70.9596 18.392ZM87.9459 23C87.7112 23 87.5299 22.9253 87.4019 22.776C87.2739 22.6267 87.2312 22.4347 87.2739 22.2L91.7219 1.4C91.7645 1.16533 91.8819 0.973332 92.0739 0.823999C92.2659 0.674665 92.4685 0.599998 92.6819 0.599998H97.0019C97.2152 0.599998 97.3859 0.674665 97.5139 0.823999C97.6419 0.973332 97.6845 1.16533 97.6419 1.4L93.1939 22.2C93.1512 22.4347 93.0339 22.6267 92.8419 22.776C92.6712 22.9253 92.4792 23 92.2659 23H87.9459ZM98.3209 23C98.1075 23 97.9369 22.9253 97.8089 22.776C97.6809 22.6267 97.6382 22.4347 97.6809 22.2L102.097 1.4C102.14 1.16533 102.246 0.973332 102.417 0.823999C102.609 0.674665 102.822 0.599998 103.057 0.599998H106.449C106.79 0.599998 107.025 0.674665 107.153 0.823999C107.281 0.973332 107.366 1.10133 107.409 1.208L112.625 13.592L115.217 1.4C115.26 1.16533 115.377 0.973332 115.569 0.823999C115.761 0.674665 115.964 0.599998 116.177 0.599998H120.017C120.252 0.599998 120.422 0.674665 120.529 0.823999C120.657 0.973332 120.7 1.16533 120.657 1.4L116.241 22.2C116.198 22.4133 116.081 22.6053 115.889 22.776C115.718 22.9253 115.516 23 115.281 23H111.889C111.548 23 111.313 22.9253 111.185 22.776C111.057 22.6053 110.972 22.4773 110.929 22.392L105.649 10.456L103.121 22.2C103.078 22.4347 102.961 22.6267 102.769 22.776C102.598 22.9253 102.396 23 102.161 23H98.3209ZM130.153 23.32C128.126 23.32 126.452 22.9893 125.129 22.328C123.828 21.6453 122.91 20.664 122.377 19.384C121.844 18.0827 121.737 16.504 122.057 14.648C122.228 13.7307 122.42 12.76 122.633 11.736C122.868 10.6907 123.092 9.69867 123.305 8.76C123.753 6.94667 124.521 5.41067 125.609 4.152C126.697 2.89333 128.041 1.93333 129.641 1.272C131.262 0.610666 133.065 0.279999 135.049 0.279999C136.649 0.279999 138.025 0.482665 139.177 0.887999C140.329 1.272 141.257 1.79467 141.961 2.456C142.665 3.11733 143.156 3.84267 143.433 4.632C143.71 5.42133 143.774 6.2 143.625 6.968C143.604 7.16 143.508 7.32 143.337 7.448C143.188 7.576 143.006 7.64 142.793 7.64H138.121C137.908 7.64 137.748 7.608 137.641 7.544C137.534 7.45867 137.449 7.34133 137.385 7.192C137.321 6.872 137.182 6.54133 136.969 6.2C136.756 5.83733 136.425 5.528 135.977 5.272C135.529 5.016 134.889 4.888 134.057 4.888C132.862 4.888 131.838 5.208 130.985 5.848C130.153 6.488 129.566 7.512 129.225 8.92C129.012 9.83733 128.798 10.7653 128.585 11.704C128.393 12.6213 128.212 13.5493 128.041 14.488C127.785 15.9813 127.945 17.0587 128.521 17.72C129.118 18.3813 130.025 18.712 131.241 18.712C132.03 18.712 132.766 18.5733 133.449 18.296C134.153 18.0187 134.75 17.592 135.241 17.016C135.732 16.4187 136.062 15.6613 136.233 14.744L136.361 14.136H133.353C133.118 14.136 132.937 14.0613 132.809 13.912C132.702 13.7413 132.67 13.5387 132.713 13.304L133.225 10.936C133.268 10.7013 133.385 10.5093 133.577 10.36C133.769 10.1893 133.972 10.104 134.185 10.104H142.281C142.516 10.104 142.686 10.1893 142.793 10.36C142.9 10.5093 142.932 10.7013 142.889 10.936L142.121 14.584C141.758 16.4187 141.012 17.9867 139.881 19.288C138.772 20.5893 137.374 21.592 135.689 22.296C134.025 22.9787 132.18 23.32 130.153 23.32Z" fill="#0F0F0F"/>
</svg>
